<?xml version="1.0" encoding="utf-8"?>
<!-- Generator: Adobe Illustrator 25.0.1, SVG Export Plug-In . SVG Version: 6.00 Build 0)  -->
<svg version="1.1" id="Layer_1" xmlns="http://www.w3.org/2000/svg" xmlns:xlink="http://www.w3.org/1999/xlink" x="0px" y="0px"
	 width="775.3px" height="101px" viewBox="0 0 775.3 101" enable-background="new 0 0 775.3 101" xml:space="preserve">
<path fill="#F18A00" d="M385.4,42.8c-12.7,0-19.1-4.8-19.1-14.3c0-9.6,6.4-14.4,19.1-14.4c2.5,0,4.9,0.2,7.1,0.5v27.7
	C390.2,42.6,387.9,42.8,385.4,42.8 M394.1,0.2c-1.6-0.1-3.6-0.2-5.8-0.2c-8.9,0-16.5,1.5-22.6,4.5c-9.2,4.6-13.9,12.2-14.1,23v0.9
	c0,11.3,4.5,19.4,13.4,24.2c5.9,3.4,13.3,5,22.1,5c2.1,0,3.9-0.1,5.5-0.3v10.1v1.1c0,9.3-2.9,13.9-8.7,13.9c-5.9,0-11.9-5.5-18-16.5
	l-12.3,9.3c10.3,17.1,20.2,25.7,29.8,25.7c10.4,0,17.7-5.5,21.7-16.4c1.7-4.6,2.6-10.2,2.9-16.5L408,0.3L394.1,0.2z M331,13.8
	l0.2,32.5l-40-42.5v70.9h14.3l-0.7-37.8l39.7,43.5l0.5-67.4L331,13.8z M264.9,35.5L264,82.4h15.2l2-46.4L264.9,35.5z M283.8,14.1
	c-2.5-2-5.5-3-8.9-3c-3.4,0-6.3,1-8.7,3c-2.5,2-3.8,4.5-3.8,7.3c0,2.8,1.3,5.3,3.8,7.3c2.4,2,5.3,3,8.7,3c3.4,0,6.4-1,8.9-3
	c2.4-2,3.6-4.5,3.6-7.3C287.4,18.6,286.2,16.1,283.8,14.1 M247.8,30.9c0,3.8-1.9,6.4-5.7,7.8c-2,0.7-4.3,1-6.8,1h-2L233,22.6
	c1.3-0.1,2.6-0.2,3.7-0.2c7.3,0,10.9,2.6,11.1,7.7V30.9z M234.1,10.5h-3L220,10.9l0.9,73.3h12.6l-0.2-32.3c5.9,0,11-1,15.3-3
	c7.7-3.4,11.5-9.3,11.5-17.8C260.1,17.4,251.4,10.5,234.1,10.5 M184.6,41.6h-2.6l-0.6-18.5c1.9-0.4,3.9-0.6,5.9-0.6
	c7.7,0,11.6,2.7,11.6,8.2C198.8,38,194.1,41.6,184.6,41.6 M199.9,50.3c7.1-3.7,10.7-10.2,10.7-19.6c0-14.3-8.2-21.4-24.5-21.4
	c-1.9,0-3.7,0.1-5.2,0.3l-13.3,0.5l1.4,71.8l13.9-0.3l-0.3-27.2c1.6,0,3.5-0.1,5.5-0.3l18,29.6l10.7-6.6L199.9,50.3z M146.7,14.6
	c0.2,3.1,0.3,6.8,0.3,10.9c0,31.3-6.1,46.9-18.2,46.9h-0.3c-12.2-0.2-18.4-15.6-18.4-46.2c0-4.4,0.2-8.4,0.6-12.3l-13.4-0.9
	c-0.5,4.5-0.7,9.4-0.7,14.6c0,15.1,1.8,27.4,5.5,37.1c5.1,13.6,13.5,20.5,25.1,20.5h1c12.9-0.2,22-8.1,27.5-23.5
	c3.5-10.1,5.3-22.5,5.3-37.2c0-3.7-0.1-7-0.3-9.8H146.7z M98.7,65.1L71.1,67l-1-54.5l-14.4,0.5l1,68.4l42-1.6V65.1z M49.2,62.4
	c0-4.3-0.7-8-2.1-11.2C43.3,43.1,35.9,39.1,25,39.1h-0.3h-0.3c-4.4,0-7.3-1.7-8.8-5.2c-0.6-1.4-0.9-2.9-0.9-4.4V28
	c0.7-4.2,4.1-6.3,10.2-6.4H25c3.5,0,7.6,3.5,12.1,10.5l10.2-6.6c-8.8-10.7-16.4-16-22.6-16c-9.4,0-16.1,2.9-20,8.7
	c-2,3.1-3.1,6.3-3.2,9.7c0.5,15,8.3,22.5,23.2,22.5c5.1,0,8.5,2,10.1,6c0.6,1.7,1,3.4,1,5.2v1.4c-0.5,5.2-4.2,7.8-11.1,7.8
	c-4.1,0-8.8-4-14.3-12.1L0,67c9.6,11.2,18,16.8,25,16.8c9.4,0,16.3-3.3,20.6-9.8c2.1-3.4,3.3-6.9,3.6-10.5V62.4z"/>
<path fill="#F18A00" d="M736.3,43.8c0.2-12.8,4.2-19.2,11.8-19.2c7.6,0,11.4,5.7,11.4,17.1v2.1H736.3z M762.8,72.7
	c-4.5,8.5-9,12.7-13.4,12.7h-0.7c-5.8-0.7-9.7-3.4-11.6-8.1c-0.9-1.9-1.3-4.1-1.3-6.6V58h39.3V43.3c-0.1-6.5-1.1-12.1-2.9-16.8
	c-4.4-11.3-12.5-16.9-24.1-16.9c-11,0-18.9,6.2-23.8,18.5c-2,5-3.4,11.1-4.1,18.3v24.8c0.3,5.5,1.5,10.2,3.6,14.1
	c4.7,9.5,13,14.3,25.1,14.5h0.7c10.9,0,19.4-6.6,25.7-19.9L762.8,72.7z M715.1,68.2l-27.8,1.9l-1.1-54.8l-14.5,0.5l1.1,68.8
	l42.3-1.6V68.2z M667.6,6.3L614,7l-0.2,13.8l19.5-0.2l0.7,68.5l14-0.5l-0.5-68.3h20.1V6.3z M587.7,44.6h-2.6L584.5,26
	c1.9-0.4,3.9-0.6,6-0.6c7.8,0,11.6,2.8,11.6,8.3C602.1,41,597.3,44.6,587.7,44.6 M603.1,53.4c7.2-3.7,10.8-10.3,10.8-19.7
	c0-14.4-8.2-21.5-24.7-21.5c-1.9,0-3.7,0.1-5.3,0.4L570.6,13l1.4,72.3l14-0.4l-0.4-27.4c1.6,0,3.5-0.1,5.5-0.4l18.1,29.8l10.8-6.7
	L603.1,53.4z M552.2,17.4c0.2,3.2,0.3,6.8,0.3,10.9c0,31.5-6.1,47.2-18.3,47.2h-0.3c-12.3-0.2-18.5-15.7-18.5-46.5
	c0-4.4,0.2-8.5,0.6-12.3l-13.5-0.9c-0.5,4.6-0.7,9.5-0.7,14.7c0,15.2,1.8,27.6,5.5,37.3c5.1,13.7,13.6,20.6,25.3,20.6h1.1
	c13-0.2,22.2-8.1,27.7-23.6c3.6-10.2,5.3-22.7,5.3-37.5c0-3.7-0.1-7-0.4-9.9H552.2z M497.3,6.3L443.7,7l-0.2,13.8l19.5-0.2l0.7,68.5
	l14-0.5l-0.5-68.3h20.1V6.3z"/>
</svg>
